<?xml version="1.0" standalone="no"?>
<!DOCTYPE svg PUBLIC "-//W3C//DTD SVG 20010904//EN"
 "http://www.w3.org/TR/2001/REC-SVG-20010904/DTD/svg10.dtd">
<svg version="1.0" xmlns="http://www.w3.org/2000/svg"
 width="499.000000pt" height="499.000000pt" viewBox="0 0 499.000000 499.000000"
 preserveAspectRatio="xMidYMid meet">
<metadata>
Created by potrace 1.14, written by Peter Selinger 2001-2017
</metadata>
<g transform="translate(0.000000,499.000000) scale(0.100000,-0.100000)"
fill="#000000" stroke="none">
<path d="M1976 4978 c4 -6 -1 -8 -14 -4 -12 4 -37 3 -56 -2 -25 -7 -36 -7 -40
1 -2 7 -5 4 -5 -6 -1 -11 -5 -15 -13 -11 -6 4 -35 7 -65 6 -29 0 -55 4 -59 9
-4 6 -10 6 -18 0 -7 -6 -29 -9 -49 -7 -20 2 -37 0 -37 -6 0 -5 -4 -7 -9 -4 -9
6 -64 -9 -95 -25 -13 -7 -16 -7 -11 0 3 6 2 11 -4 11 -5 0 -12 -4 -16 -9 -3
-6 -15 -8 -27 -6 -12 3 -26 -1 -30 -8 -6 -9 -8 -9 -8 1 0 8 -5 10 -12 5 -7 -4
-22 -9 -32 -10 -11 -2 -25 -8 -31 -13 -7 -5 -15 -7 -18 -3 -4 3 -12 2 -19 -4
-7 -5 -23 -8 -35 -7 -13 0 -23 -3 -23 -9 0 -6 -3 -8 -6 -4 -4 3 -21 0 -39 -8
-19 -7 -36 -11 -39 -7 -3 3 -6 0 -6 -6 0 -6 -9 -14 -20 -17 -11 -4 -18 -10
-15 -15 3 -5 -4 -11 -15 -15 -11 -4 -18 -10 -15 -15 3 -4 -2 -11 -11 -14 -9
-4 -14 -9 -11 -13 4 -3 -1 -12 -11 -20 -11 -10 -12 -12 -2 -8 10 4 9 2 -2 -8
-10 -8 -15 -17 -11 -20 3 -4 1 -7 -5 -7 -7 0 -12 5 -12 12 0 6 -3 8 -6 5 -4
-4 -1 -14 7 -24 12 -14 12 -16 0 -8 -11 6 -13 3 -9 -13 4 -12 2 -19 -3 -16 -5
3 -12 -1 -15 -9 -6 -17 -54 -11 -54 7 0 7 -6 13 -14 13 -8 0 -15 -3 -14 -6 2
-20 -3 -31 -13 -26 -6 4 -13 -2 -16 -14 -4 -17 -8 -19 -20 -10 -8 7 -13 8 -11
3 2 -5 -1 -10 -6 -11 -10 -1 -26 -24 -26 -36 0 -5 4 -6 9 -3 5 3 11 -5 13 -18
6 -28 -19 -45 -70 -49 -28 -2 -33 -5 -29 -24 3 -15 0 -20 -10 -16 -7 3 -10 10
-6 17 4 6 0 5 -9 -2 -9 -8 -14 -20 -11 -28 3 -7 -2 -17 -11 -20 -9 -3 -13 -10
-10 -15 3 -5 0 -9 -6 -9 -6 0 -8 -4 -5 -10 3 -5 2 -10 -2 -10 -13 0 -45 -59
-38 -70 3 -6 -1 -10 -10 -10 -9 0 -13 -4 -10 -10 3 -5 1 -10 -5 -10 -7 0 -10
-7 -6 -15 3 -8 0 -15 -6 -15 -6 0 -9 -3 -5 -6 7 -7 -15 -34 -23 -29 -3 2 -7
-5 -7 -16 -1 -10 2 -19 8 -19 15 0 10 -17 -7 -24 -8 -3 -12 -2 -9 3 3 5 1 12
-4 15 -10 7 -9 -13 1 -30 4 -6 -1 -18 -12 -26 -12 -11 -17 -24 -13 -37 3 -12
1 -21 -6 -21 -6 0 -11 -7 -11 -15 0 -8 -4 -15 -9 -15 -5 0 -12 -7 -15 -16 -4
-10 -2 -13 7 -8 9 6 9 4 1 -7 -5 -8 -11 -30 -13 -49 -2 -19 -10 -43 -18 -52
-8 -9 -12 -22 -7 -29 5 -9 2 -10 -10 -6 -14 5 -17 3 -12 -8 3 -9 0 -15 -8 -15
-10 0 -12 -13 -8 -51 3 -30 1 -50 -4 -46 -5 3 -10 -33 -10 -83 0 -49 3 -87 7
-84 10 6 42 -27 34 -34 -3 -4 -10 0 -15 8 -6 9 -10 10 -10 3 0 -7 7 -16 16
-21 10 -6 16 -24 17 -50 1 -23 6 -42 10 -42 5 0 5 -4 2 -10 -3 -5 0 -10 7 -10
9 0 9 -3 -2 -10 -8 -5 -10 -10 -5 -10 10 0 16 -26 18 -77 1 -13 4 -23 7 -23 3
0 6 -9 7 -20 1 -11 9 -27 17 -36 9 -8 17 -22 17 -30 2 -18 4 -24 16 -54 36
-87 42 -101 43 -105 0 -3 0 -6 1 -7 3 -10 8 -38 14 -71 11 -68 61 -197 88
-230 15 -18 27 -39 27 -48 0 -8 4 -19 10 -25 5 -5 11 -18 13 -29 2 -11 8 -30
15 -41 6 -12 8 -24 5 -28 -3 -3 -2 -6 4 -6 5 0 15 -17 22 -37 7 -21 30 -58 52
-83 21 -24 39 -50 39 -57 0 -7 5 -13 11 -13 5 0 8 -4 5 -9 -3 -5 1 -14 9 -21
8 -7 15 -19 15 -27 0 -7 6 -16 14 -19 7 -3 22 -22 32 -42 11 -20 27 -45 36
-56 10 -11 18 -24 18 -28 0 -5 5 -6 10 -3 5 3 10 2 10 -4 0 -6 7 -8 15 -5 16
6 45 -17 45 -36 0 -6 4 -9 9 -6 9 6 60 -82 67 -117 2 -12 6 -33 9 -47 11 -50
17 -140 12 -162 -4 -15 -14 -24 -27 -25 -12 -1 -45 -10 -73 -19 -29 -10 -54
-17 -57 -17 -3 1 -21 -5 -40 -13 -19 -8 -69 -23 -110 -33 -78 -20 -180 -54
-215 -71 -11 -6 -54 -21 -95 -34 -119 -38 -231 -82 -334 -132 -16 -8 -33 -14
-37 -14 -4 0 -20 -5 -36 -12 -15 -6 -62 -23 -103 -38 l-75 -27 -3 -681 -2
-682 2495 0 2495 0 0 694 0 693 -72 75 c-72 74 -240 214 -287 238 -35 18 -149
50 -201 55 -105 12 -129 14 -200 20 -41 4 -111 8 -155 10 -86 3 -208 18 -320
40 -66 13 -148 26 -187 31 -10 1 -21 3 -25 4 -5 1 -23 2 -40 2 -18 0 -33 6
-33 12 0 6 -5 4 -10 -4 -5 -8 -10 -11 -10 -6 0 5 -6 3 -14 -3 -12 -10 -13 -8
-7 16 4 15 12 28 17 28 5 0 15 4 22 8 6 5 12 5 12 2 0 -3 11 6 25 21 14 15 25
24 25 20 0 -4 6 -1 14 6 8 7 14 15 13 18 -1 3 5 16 12 28 37 68 17 171 -48
242 -17 19 -31 42 -31 52 0 9 -9 40 -20 68 -11 27 -18 50 -15 50 3 0 -4 23
-15 50 -24 62 -25 83 -3 196 9 49 17 122 17 162 l2 74 46 33 c68 50 91 87 86
139 -8 77 -59 147 -173 236 -38 30 -71 58 -73 62 -2 5 -9 8 -15 8 -7 1 -32 21
-57 46 -25 25 -36 42 -26 38 15 -6 18 -4 13 9 -5 12 1 19 21 24 l27 7 -33 8
c-22 6 -30 13 -25 21 4 7 8 17 9 22 5 28 11 40 26 57 14 13 16 27 12 55 -4 21
-8 46 -9 56 -1 18 -72 129 -104 163 -26 28 -62 100 -54 108 4 3 1 6 -7 6 -10
0 -10 4 1 17 10 11 10 14 2 9 -8 -4 -13 -2 -13 4 0 6 -5 8 -12 4 -6 -4 -4 3 5
17 20 28 22 43 5 33 -10 -6 -10 -5 -1 8 7 8 9 18 5 23 -4 4 3 5 15 2 13 -3 26
-1 29 4 3 5 11 9 17 9 7 0 6 -4 -3 -10 -8 -5 -10 -10 -4 -10 21 0 23 13 6 38
-9 15 -12 23 -5 19 6 -4 14 -3 18 3 3 5 1 10 -6 10 -10 0 -10 3 -1 12 16 16
15 31 0 22 -9 -5 -9 -3 1 9 7 9 11 28 9 42 -3 14 -1 25 6 25 7 0 7 3 -1 8 -15
9 -11 41 6 51 10 6 9 10 -4 15 -9 3 -14 10 -11 15 3 5 -1 28 -9 52 -9 25 -12
46 -6 52 11 11 2 49 -10 41 -5 -3 -9 0 -9 5 0 6 5 11 12 11 6 0 1 9 -11 19
-12 10 -21 23 -20 27 5 27 -1 36 -16 24 -12 -10 -16 -9 -21 4 -3 9 -11 13 -17
9 -6 -3 -7 -1 -3 6 4 6 12 8 18 5 7 -5 8 -2 4 5 -5 7 -14 10 -21 7 -8 -3 -19
2 -25 9 -7 8 -16 13 -19 10 -4 -2 -8 2 -8 9 0 8 9 11 24 8 19 -4 22 -1 17 13
-4 10 -9 13 -13 6 -5 -7 -16 -6 -34 4 -15 7 -27 12 -27 10 0 -2 -15 1 -32 6
-18 6 -37 11 -43 12 -5 2 -15 6 -22 10 -6 4 -18 5 -25 2 -8 -3 -21 2 -29 12
-13 17 -13 17 6 3 11 -8 -11 16 -49 53 -40 39 -75 65 -83 63 -8 -3 -16 1 -19
9 -4 8 -10 12 -15 9 -5 -3 -9 3 -9 13 0 12 -3 14 -8 6 -6 -10 -17 -8 -45 7
-20 11 -39 20 -42 20 -3 0 -8 1 -12 1 -5 1 -15 2 -23 3 -8 0 -14 7 -12 14 1 8
-2 11 -8 7 -6 -3 -8 -11 -5 -16 4 -5 1 -9 -4 -9 -6 0 -11 6 -11 13 0 6 -5 4
-11 -6 -7 -12 -15 -15 -22 -9 -7 5 -20 8 -30 7 -10 -2 -20 2 -23 9 -2 6 -21
11 -42 10 -20 0 -40 4 -44 10 -5 7 -8 6 -8 -4 0 -13 -1 -13 -10 0 -8 12 -13
13 -29 3 -15 -9 -22 -10 -27 -1 -5 7 -3 8 6 3 9 -6 11 -4 5 5 -6 10 -11 9 -22
-5 -7 -11 -13 -14 -13 -9 0 5 -19 10 -42 11 -24 1 -66 3 -95 5 -29 1 -55 -1
-58 -4 -4 -3 -20 -2 -36 2 -20 6 -27 5 -23 -2z m1119 -789 c1 -28 -2 -34 -5
-14 -1 6 -6 17 -10 26 -6 10 -5 16 3 16 7 0 12 -13 12 -28z m-8 -94 c0 -8 -4
-12 -9 -9 -5 3 -6 10 -3 15 9 13 12 11 12 -6z m-2601 -369 c-1 -8 -7 -20 -14
-28 -6 -8 -8 -19 -4 -23 4 -5 1 -5 -6 -1 -10 6 -10 11 -1 22 9 11 8 14 -2 14
-8 0 -5 6 7 15 24 18 23 18 20 1z m-36 -120 c0 -2 -7 -7 -16 -10 -8 -3 -12 -2
-9 4 6 10 25 14 25 6z"/>
<path d="M2787 4829 c7 -7 15 -10 18 -7 3 3 -2 9 -12 12 -14 6 -15 5 -6 -5z"/>
<path d="M995 4701 c-3 -5 -2 -12 3 -15 5 -3 9 1 9 9 0 17 -3 19 -12 6z"/>
<path d="M3070 4700 c0 -5 5 -10 11 -10 5 0 7 5 4 10 -3 6 -8 10 -11 10 -2 0
-4 -4 -4 -10z"/>
<path d="M3070 4669 c0 -5 -5 -7 -12 -3 -7 4 -8 3 -4 -4 4 -6 13 -9 21 -5 17
6 20 23 5 23 -5 0 -10 -5 -10 -11z"/>
<path d="M3126 4671 c-3 -4 6 -7 19 -7 14 0 22 2 19 5 -8 8 -34 10 -38 2z"/>
<path d="M3106 4647 c3 -10 9 -15 12 -12 3 3 0 11 -7 18 -10 9 -11 8 -5 -6z"/>
<path d="M3125 4100 c-3 -5 -1 -11 4 -14 5 -4 12 -2 16 3 3 6 13 7 23 4 9 -3
14 -3 11 1 -10 11 -48 15 -54 6z"/>
<path d="M3154 4065 c3 -8 1 -15 -4 -15 -5 0 -7 -7 -3 -15 3 -9 8 -13 11 -10
10 10 10 55 -1 55 -5 0 -7 -7 -3 -15z"/>
</g>
</svg>
